# xmcd CD database file generated by LOLA_Freedb v0.9beta0
# 
# Track frame offsets:
#      150
#      11261
#      18751
#      28920
#      40020
#      49358
#      63879
#      75432
#      86894
#      97589
#      112672
#      118598
#      131069
#      138985
#      151581
#      167590
# 
# Disc length: 2433 seconds
# 
# Revision: 3 
# Processed by: cddbd v1.5.2PL0 Copyright (c) Steve Scherf et al.
# Submitted via: LOLA_Freedb v0.9beta0
# 
DISCID=b0097f10
DTITLE=Various Artist - Country Women volume 2 cd2
DYEAR=1999
DGENRE=Country
TTITLE0=Tammy Wynette - D.I.V.O.R.C.E.
TTITLE1=Dolly Parton - Puppy love
TTITLE2=Anne Murray - Somebirds
TTITLE3=Tammy Wynette - Stand by your man
TTITLE4=Dolly Parton - Girl left alone
TTITLE5=Lynn Anderson - Cry
TTITLE6=Dolly Parton - Making believe
TTITLE7=Patsy Cline - Walking after midnight
TTITLE8=Dolly Parton - It wasn't  god who made honky tonk angels
TTITLE9=Anne Murray - There goes my everything
TTITLE10=Tammy Wynette - Welcome to my world
TTITLE11=Tina Turner - You ain't women enough to take my man
TTITLE12=Tammy Wynette - When the grass grows over me
TTITLE13=Anne Murray - Just fall in love again
TTITLE14=Tammy Wynette - Till I can make it on my own
TTITLE15=Barbara Fairchild - Rocky top
EXTD=
EXTT0=
EXTT1=
EXTT2=
EXTT3=
EXTT4=
EXTT5=
EXTT6=
EXTT7=
EXTT8=
EXTT9=
EXTT10=
EXTT11=
EXTT12=
EXTT13=
EXTT14=
EXTT15=
PLAYORDER=
